<svg width="30" height="32" viewBox="0 0 30 32" fill="none" xmlns="http://www.w3.org/2000/svg">
<path d="M24.0532 5.96004C23.1587 6.01116 22.2615 5.93938 21.3865 5.74671C20.3311 5.38531 19.344 4.84894 18.4665 4.16004C17.7159 3.62789 17.003 3.04427 16.3332 2.41338C16.0492 2.14812 15.6751 2.00058 15.2865 2.00058C14.8979 2.00058 14.5238 2.14812 14.2399 2.41338C13.5878 3.02432 12.9023 3.59854 12.1865 4.13338C11.3036 4.83133 10.3128 5.38076 9.2532 5.76004C8.25659 5.98523 7.23279 6.06605 6.2132 6.00004C5.37834 5.96547 4.54599 5.88535 3.71986 5.76004C3.51799 5.73012 3.31216 5.74115 3.11464 5.79248C2.91712 5.84381 2.73197 5.93439 2.57021 6.05882C2.40845 6.18325 2.2734 6.33898 2.17313 6.51672C2.07285 6.69447 2.00939 6.89058 1.98653 7.09338C1.91986 7.73338 1.74653 9.40004 1.66653 11.2534C1.55442 13.1051 1.67085 14.9635 2.0132 16.7867C2.97859 19.8073 4.75413 22.5052 7.14653 24.5867C9.04811 26.3804 11.1101 27.996 13.3065 29.4134C13.8952 29.8176 14.5925 30.0339 15.3065 30.0339C16.0206 30.0339 16.7179 29.8176 17.3065 29.4134C19.3865 27.9591 21.3321 26.3214 23.1199 24.52C25.3722 22.4233 27.0402 19.7766 27.9599 16.84" stroke="#1A202C" stroke-width="2.5" stroke-linecap="round" stroke-linejoin="round"/>
<path d="M13.6666 14.6667L17.48 18.48C17.5037 18.5059 17.5325 18.5265 17.5647 18.5406C17.5968 18.5548 17.6315 18.5621 17.6666 18.5621C17.7017 18.5621 17.7364 18.5548 17.7686 18.5406C17.8007 18.5265 17.8296 18.5059 17.8533 18.48L28.3333 8" stroke="#3563E9" stroke-width="2.5" stroke-linecap="round" stroke-linejoin="round"/>
</svg>
